<svg width="29" height="38" viewBox="0 0 29 38" fill="none" xmlns="http://www.w3.org/2000/svg">
<path d="M28.9995 19.013C28.9995 24.1971 29 29.381 28.9995 34.5651C28.9993 36.6808 27.6367 37.9993 25.4507 37.9995C20.8179 38.0002 16.185 38.0002 11.5522 37.9995C9.36686 37.9993 8.00496 36.6799 8.00427 34.5643C8.00381 33.021 7.99925 31.4775 8.01067 29.9342C8.01204 29.7469 8.04264 29.4886 8.16732 29.391C8.34292 29.2532 8.63224 29.1516 8.84872 29.1843C9.20198 29.2377 9.31867 29.5374 9.31799 29.8768C9.31411 31.5256 9.31 33.1744 9.31936 34.8233C9.32484 35.7677 9.98113 36.5211 10.9336 36.6987C11.1062 36.7309 11.2868 36.7316 11.4636 36.7316C16.151 36.7331 20.8386 36.7336 25.526 36.7325C26.8866 36.7322 27.6865 35.9567 27.6867 34.6378C27.6874 24.217 27.6874 13.796 27.6867 3.37521C27.6867 2.03265 26.8923 1.26884 25.4984 1.26862C20.8245 1.26796 16.1508 1.26774 11.4768 1.26862C10.1161 1.26884 9.3173 2.04369 9.31639 3.36218C9.31502 5.30118 9.31616 7.24039 9.31593 9.17938C9.31593 9.28493 9.32118 9.39092 9.31319 9.49581C9.28419 9.87297 9.02113 10.1285 8.66421 10.1311C8.30684 10.1338 8.02802 9.87981 8.00907 9.50487C7.9924 9.17585 8.00381 8.84551 8.00381 8.51583C8.00381 6.77469 8.00016 5.03333 8.00473 3.29219C8.00975 1.36512 9.41686 0.00444453 11.4138 0.00289881C16.1423 -0.000855074 20.8708 -0.00107589 25.5993 0.00289881C27.591 0.00466535 28.9966 1.36931 28.9979 3.30212C29.0016 8.53901 28.9993 13.7757 28.9993 19.0126L28.9995 19.013Z" fill="#FF0127"/>
<path d="M8.49895 11.001C10.1874 11.001 11.8758 10.9987 13.5642 11.0017C15.6044 11.0051 16.9955 12.3978 16.9975 14.4434C17.0005 17.8203 17.0012 21.197 16.9975 24.574C16.9952 26.5924 15.5978 27.9949 13.5865 27.9972C10.1963 28.0011 6.80574 28.0008 3.41523 27.9972C1.40304 27.9949 0.00469877 26.5922 0.00265109 24.5756C-0.000534197 21.1852 -0.00121676 17.7946 0.00265109 14.4042C0.00492629 12.4131 1.40736 11.0079 3.39293 11.0024C5.09501 10.9976 6.79687 11.0015 8.49895 11.0015V11.001ZM1.30885 19.4998C1.30885 21.1608 1.30839 22.8216 1.30885 24.4826C1.30953 25.9013 2.09038 26.6899 3.49691 26.6902C6.83236 26.6911 10.1676 26.6911 13.503 26.6902C14.893 26.6897 15.6895 25.9008 15.69 24.5218C15.6913 21.1726 15.6913 17.8237 15.69 14.4746C15.6895 13.1099 14.8959 12.3094 13.5424 12.3089C10.1799 12.3076 6.81712 12.3076 3.45459 12.3089C2.10449 12.3094 1.30998 13.1133 1.30885 14.4762C1.30748 16.1507 1.30862 17.8253 1.30862 19.4998H1.30885Z" fill="#FF0127"/>
<path d="M18.5026 2.0021C19.0892 2.0021 19.6757 1.99619 20.2623 2.00419C20.7205 2.01045 21.002 2.39974 21 3.00368C20.998 3.60623 20.7168 3.99274 20.2566 3.99517C19.0835 4.00143 17.9104 4.00178 16.7373 3.99517C16.2773 3.99239 15.998 3.60136 16 2.99499C16.002 2.39 16.281 2.00976 16.743 2.00419C17.3295 1.99689 17.9161 2.00245 18.5026 2.00245V2.0021Z" fill="#FF0127"/>
<path d="M15.4865 30.0003C15.7814 29.9881 15.9955 30.3985 15.9999 30.9841C16.0044 31.5693 15.7931 31.9993 15.5006 32C15.2225 32.0007 15.0135 31.6021 15.0006 31.0462C14.9871 30.4662 15.1982 30.0118 15.4865 30.0003Z" fill="#FF0127"/>
<path d="M18.4998 32C18.2097 32 17.9955 31.5638 18.0001 30.9828C18.0045 30.4249 18.2094 30.0111 18.4867 30.0002C18.7819 29.9887 18.9958 30.3998 18.9999 30.9853C19.0041 31.5705 18.7925 31.9997 18.4998 31.9997V32Z" fill="#FF0127"/>
<path d="M20.9896 31.9996C20.4105 31.9954 19.9845 31.553 20.0004 30.9716C20.0154 30.4143 20.4283 30.0067 20.9839 30.0001C21.5728 29.9931 21.9981 30.4101 22 30.9964C22.0019 31.5816 21.5763 32.0042 20.9896 32V31.9996Z" fill="#FF0127"/>
<path d="M7.0124 21.5005C7.06477 21.4238 7.09221 21.3699 7.13126 21.3284C8.72921 19.6301 10.3287 17.9334 11.9264 16.2347C12.0971 16.0532 12.289 15.9585 12.5332 16.0175C12.9566 16.1199 13.1402 16.6489 12.8795 17.0179C12.8487 17.0614 12.8128 17.1012 12.7765 17.1398C11.0081 19.0156 9.23902 20.8907 7.47156 22.7676C7.28302 22.9678 7.06716 23.0575 6.81011 22.9612C6.71679 22.9262 6.62623 22.8593 6.55532 22.7846C5.7674 21.9553 4.98248 21.1227 4.19916 20.2885C3.94107 20.0136 3.93456 19.627 4.17534 19.3692C4.41944 19.1078 4.79131 19.1148 5.0526 19.3913C5.6626 20.0369 6.27058 20.6847 6.87875 21.3324C6.91497 21.371 6.94536 21.4157 7.0124 21.5005Z" fill="#FF0127"/>
</svg>
