<svg width="24" height="26" viewBox="0 0 24 26" fill="none" xmlns="http://www.w3.org/2000/svg">
<path d="M0.446233 1.09398C0.163578 1.38247 0 1.83161 0 2.41329V23.161C0 23.7427 0.163578 24.1919 0.446233 24.4803L0.516001 24.5436L12.4404 12.922V12.6476L0.516001 1.02596L0.446233 1.09398Z" fill="black"/>
<path d="M17.8542 16.7979L13.8838 12.9222V12.6477L17.859 8.77188L17.948 8.82231L22.6558 11.434C23.9992 12.1751 23.9992 13.3947 22.6558 14.1406L17.948 16.7475L17.8542 16.7979Z" fill="black"/>
<path d="M17.2265 17.4693L13.1623 13.5067L1.16809 25.2023C1.61432 25.6597 2.34201 25.7148 3.16953 25.2574L17.2265 17.4693Z" fill="black"/>
<path d="M17.2265 8.10073L3.16953 0.312714C2.34201 -0.139954 1.61432 -0.0848381 1.16809 0.37252L13.1623 12.0634L17.2265 8.10073Z" fill="black"/>
</svg>
