<svg width="25" height="28" viewBox="0 0 25 28" fill="none" xmlns="http://www.w3.org/2000/svg">
<path d="M0.567256 1.74122C0.2698 2.04482 0.0976562 2.51748 0.0976562 3.12962V24.9637C0.0976562 25.5759 0.2698 26.0486 0.567256 26.3521L0.640676 26.4188L13.1895 14.1886V13.8999L0.640676 1.66965L0.567256 1.74122Z" fill="white"/>
<path d="M18.8867 18.2675L14.7084 14.1888V13.9L18.8918 9.82117L18.9854 9.87424L23.9397 12.6227C25.3535 13.4026 25.3535 14.6861 23.9397 15.471L18.9854 18.2145L18.8867 18.2675Z" fill="white"/>
<path d="M18.2262 18.974L13.9492 14.8039L1.3269 27.1119C1.7965 27.5933 2.56229 27.6513 3.43314 27.1699L18.2262 18.974Z" fill="white"/>
<path d="M18.2262 9.11487L3.43314 0.919054C2.56229 0.442684 1.7965 0.500685 1.3269 0.981992L13.9492 13.285L18.2262 9.11487Z" fill="white"/>
</svg>
