<svg width="42" height="42" viewBox="0 0 42 42" fill="none" xmlns="http://www.w3.org/2000/svg">
<path d="M32.5744 20.9676C32.5744 25.8978 32.5748 30.8278 32.5744 35.7579C32.5742 37.77 31.3211 39.0239 29.3108 39.0241C25.0503 39.0247 20.7898 39.0247 16.5293 39.0241C14.5196 39.0239 13.2672 37.7691 13.2666 35.7571C13.2661 34.2894 13.2619 32.8215 13.2724 31.3538C13.2737 31.1757 13.3018 30.93 13.4165 30.8372C13.578 30.7062 13.8441 30.6096 14.0431 30.6407C14.368 30.6915 14.4753 30.9765 14.4747 31.2992C14.4711 32.8673 14.4673 34.4354 14.476 36.0034C14.481 36.9016 15.0845 37.6181 15.9604 37.787C16.1192 37.8176 16.2853 37.8183 16.4479 37.8183C20.7585 37.8197 25.0694 37.8201 29.3801 37.8191C30.6313 37.8189 31.3669 37.0814 31.3671 35.827C31.3677 25.9167 31.3677 16.0062 31.3671 6.09586C31.3671 4.81906 30.6365 4.09267 29.3547 4.09246C25.0564 4.09183 20.7583 4.09162 16.46 4.09246C15.2086 4.09267 14.4741 4.82956 14.4732 6.08347C14.472 7.92748 14.473 9.7717 14.4728 11.6157C14.4728 11.7161 14.4776 11.8169 14.4703 11.9166C14.4436 12.2753 14.2017 12.5183 13.8735 12.5208C13.5448 12.5233 13.2884 12.2818 13.271 11.9253C13.2556 11.6124 13.2661 11.2982 13.2661 10.9847C13.2661 9.32881 13.2628 7.67275 13.267 6.0169C13.2716 4.18423 14.5656 2.89021 16.4021 2.88874C20.7505 2.88517 25.099 2.88496 29.4475 2.88874C31.2791 2.89042 32.5716 4.18822 32.5729 6.02635C32.5763 11.0067 32.5742 15.9869 32.5742 20.9672L32.5744 20.9676Z" fill="#FF0127"/>
<path d="M13.8688 13.7287C15.4272 13.7287 16.9857 13.7266 18.5441 13.7294C20.4271 13.7325 21.7111 15.0156 21.713 16.9001C21.7157 20.0113 21.7163 23.1222 21.713 26.2334C21.7109 28.0929 20.421 29.3851 18.5646 29.3872C15.4354 29.3907 12.306 29.3905 9.17659 29.3872C7.31935 29.3851 6.02869 28.0927 6.0268 26.2349C6.02386 23.1113 6.02323 19.9876 6.0268 16.864C6.0289 15.0297 7.32334 13.735 9.15601 13.73C10.727 13.7256 12.2978 13.7291 13.8688 13.7291V13.7287ZM7.23241 21.5586C7.23241 23.0888 7.23199 24.6189 7.23241 26.1492C7.23304 27.4562 7.95376 28.1828 9.25198 28.183C12.3306 28.1839 15.409 28.1839 18.4876 28.183C19.7705 28.1826 20.5057 27.4558 20.5061 26.1853C20.5074 23.0998 20.5074 20.0144 20.5061 16.9289C20.5057 15.6716 19.7732 14.9341 18.5239 14.9337C15.4203 14.9324 12.3165 14.9324 9.21292 14.9337C7.96678 14.9341 7.23346 15.6748 7.23241 16.9304C7.23115 18.473 7.2322 20.0159 7.2322 21.5586H7.23241Z" fill="#FF0127"/>
<path d="M22.9227 5.29692C23.4883 5.29692 24.0538 5.29335 24.6193 5.29818C25.0612 5.30196 25.3325 5.53695 25.3306 5.90151C25.3287 6.26523 25.0576 6.49854 24.6139 6.50001C23.4828 6.50379 22.3517 6.504 21.2207 6.50001C20.7772 6.49833 20.5079 6.26229 20.5098 5.89626C20.5117 5.53107 20.7807 5.30154 21.2261 5.29818C21.7917 5.29377 22.3572 5.29713 22.9227 5.29713V5.29692Z" fill="#FF0127"/>
<path d="M20.4277 31.7975C20.8179 31.7902 21.1012 32.0371 21.1071 32.3895C21.113 32.7417 20.8335 33.0004 20.4464 33.0008C20.0785 33.0012 19.8019 32.7614 19.7849 32.4269C19.7671 32.0779 20.0464 31.8045 20.4277 31.7975Z" fill="#FF0127"/>
<path d="M22.8591 33.0008C22.4757 33.0008 22.1924 32.7383 22.1985 32.3886C22.2043 32.0528 22.4752 31.8038 22.8419 31.7973C23.2321 31.7903 23.515 32.0377 23.5204 32.3901C23.5259 32.7423 23.2462 33.0006 22.8591 33.0006V33.0008Z" fill="#FF0127"/>
<path d="M25.2659 33.001C24.8831 32.9984 24.6015 32.7322 24.612 32.3823C24.6218 32.0469 24.8948 31.8016 25.2621 31.7977C25.6515 31.7935 25.9327 32.0444 25.9339 32.3972C25.9352 32.7494 25.6538 33.0037 25.2659 33.0012V33.001Z" fill="#FF0127"/>
<path d="M14.5736 22.4649C14.7859 22.2353 14.9885 21.9959 15.2126 21.7786C15.4976 21.502 15.8346 21.4901 16.0866 21.7242C16.3493 21.9684 16.3521 22.3275 16.0646 22.6241C15.4879 23.219 14.9033 23.8064 14.3121 24.3872C14.036 24.6585 13.6897 24.6478 13.4091 24.3698C12.8293 23.7954 12.2533 23.2171 11.6833 22.6333C11.3933 22.3364 11.3849 21.9831 11.6407 21.7339C11.8963 21.485 12.2352 21.5045 12.5437 21.7929C12.7636 21.9985 12.9772 22.2108 13.1945 22.4189C13.1991 22.4233 13.2157 22.4153 13.2667 22.4054C13.2667 22.2448 13.2667 22.0745 13.2667 21.9042C13.2667 20.6496 13.2659 19.3951 13.2672 18.1406C13.2676 17.6284 13.4778 17.3505 13.8623 17.3453C14.2485 17.34 14.4724 17.6223 14.473 18.1254C14.4745 19.4302 14.4736 20.7349 14.4736 22.0396V22.4078C14.507 22.4269 14.5406 22.446 14.574 22.4649H14.5736Z" fill="#FF0127"/>
<path d="M13.8317 26.9787C12.688 26.9787 11.5441 26.9803 10.4005 26.9778C9.92505 26.9768 9.64911 26.7517 9.64911 26.3762C9.64911 26.0009 9.92505 25.7754 10.4005 25.7749C12.713 25.7733 15.0257 25.7733 17.3383 25.7749C17.8135 25.7754 18.0901 26.0011 18.0901 26.3762C18.0901 26.7508 17.8129 26.977 17.3383 26.978C16.1694 26.9803 15.0005 26.9789 13.8317 26.9789V26.9787Z" fill="#FF0127"/>
</svg>
