<svg width="21" height="25" viewBox="0 0 21 25" fill="none" xmlns="http://www.w3.org/2000/svg">
<path d="M11.8319 1.89256C12.7614 0.837529 14.333 0.0525019 15.6302 0C15.7958 1.46755 15.1875 2.9351 14.2864 3.99264C13.3854 5.04768 11.9096 5.8702 10.4623 5.7627C10.2681 4.32765 10.9956 2.8326 11.8319 1.89256ZM19.2109 21.8957C18.1339 23.4183 17.0205 24.9333 15.2651 24.9658C13.5356 24.9983 12.9815 23.9733 11.0086 23.9733C9.0331 23.9733 8.4143 24.9333 6.78315 24.9983C5.08728 25.0608 3.7979 23.3508 2.71305 21.8357C0.49677 18.7331 -1.19392 13.0655 1.07932 9.24028C2.20559 7.34026 4.2251 6.13771 6.41291 6.10771C8.0803 6.07771 9.65188 7.19525 10.6695 7.19525C11.6895 7.19525 13.6003 5.8527 15.6068 6.05021C16.4483 6.08521 18.8071 6.37772 20.3216 8.5253C20.2025 8.6003 17.5047 10.1204 17.5384 13.2855C17.572 17.0656 20.9585 18.3231 21 18.3406C20.9663 18.4282 20.4537 20.1357 19.2109 21.8957Z" fill="black"/>
</svg>
