<svg width="27" height="35" viewBox="0 0 27 35" fill="none" xmlns="http://www.w3.org/2000/svg">
<path d="M15.2125 2.64959C16.4075 1.17254 18.4282 0.0735026 20.096 0C20.3089 2.05457 19.5268 4.10914 18.3682 5.58969C17.2098 7.06675 15.3124 8.21829 13.4515 8.06779C13.2018 6.05871 14.1372 3.96564 15.2125 2.64959ZM24.6997 30.654C23.315 32.7857 21.8835 34.9067 19.6265 34.9522C17.4029 34.9977 16.6905 33.5627 14.1539 33.5627C11.614 33.5627 10.8184 34.9067 8.72119 34.9977C6.54079 35.0852 4.88301 32.6912 3.48821 30.57C0.638704 26.2264 -1.53504 18.2916 1.38769 12.9364C2.83575 10.2764 5.43227 8.5928 8.24517 8.5508C10.389 8.5088 12.4096 10.0734 13.7179 10.0734C15.0294 10.0734 17.4861 8.19379 20.0659 8.4703C21.1478 8.5193 24.1805 8.92881 26.1278 11.9354C25.9747 12.0404 22.506 14.1685 22.5493 18.5996C22.5925 23.8918 26.9467 25.6524 27 25.6769C26.9567 25.7994 26.2976 28.19 24.6997 30.654Z" fill="white"/>
</svg>
