<svg width="34" height="34" viewBox="0 0 34 34" fill="none" xmlns="http://www.w3.org/2000/svg">
<path d="M27.4633 11.5519H2.63023C2.63023 11.6658 2.63023 11.7695 2.63023 11.8732C2.63023 17.0759 2.63006 22.2786 2.6304 27.4812C2.6304 28.3778 3.12918 28.8792 4.02236 28.8793C8.20929 28.88 12.3964 28.8797 16.5833 28.8797C16.6809 28.8797 16.7788 28.8761 16.8761 28.882C17.272 28.9058 17.5617 29.2001 17.5646 29.5772C17.5673 29.9542 17.2798 30.2543 16.8868 30.283C16.8382 30.2866 16.7892 30.2854 16.7404 30.2854C12.4753 30.2854 8.21031 30.2879 3.94518 30.284C2.53554 30.2827 1.46335 29.3582 1.24915 27.9725C1.22399 27.8097 1.22552 27.6419 1.22552 27.4763C1.2245 20.7606 1.22416 14.0451 1.22484 7.32944C1.22501 5.63012 2.34769 4.51407 4.05415 4.51237C4.34604 4.51203 4.6381 4.51237 4.97351 4.51237C4.97351 4.12324 4.96756 3.74686 4.97504 3.37082C4.9832 2.96452 5.25656 2.66685 5.62954 2.64135C6.02785 2.61415 6.35527 2.91522 6.37567 3.33648C6.38519 3.5313 6.37822 3.7268 6.37839 3.92213C6.37856 4.10624 6.37839 4.29018 6.37839 4.49333H14.3437C14.3437 4.12987 14.3403 3.77168 14.3446 3.41366C14.3499 2.95534 14.638 2.64084 15.0453 2.64016C15.4532 2.63965 15.7425 2.95347 15.7483 3.41094C15.7527 3.76216 15.7491 4.11338 15.7491 4.48857H23.7147C23.7147 4.15095 23.713 3.80364 23.715 3.45633C23.7179 2.9567 24.0055 2.63098 24.4321 2.64016C24.8477 2.64917 25.1166 2.96673 25.1197 3.45599C25.1217 3.79599 25.12 4.13599 25.12 4.51254C25.458 4.51254 25.7764 4.51169 26.0947 4.51254C27.7362 4.5173 28.867 5.64984 28.8679 7.29731C28.8697 10.8991 28.8685 14.5011 28.8684 18.1029C28.8684 18.1809 28.8716 18.2594 28.8634 18.3368C28.8242 18.7118 28.5204 18.9857 28.1544 18.9797C27.7901 18.9738 27.496 18.6911 27.4666 18.3135C27.4589 18.2164 27.463 18.1183 27.463 18.0207C27.463 15.9807 27.463 13.9406 27.463 11.9006V11.5522L27.4633 11.5519ZM27.4271 10.1288C27.4383 10.096 27.4604 10.0613 27.4604 10.0268C27.4615 9.041 27.474 8.05483 27.4541 7.06934C27.4436 6.5454 27.0674 6.07178 26.5484 5.98049C26.0873 5.8994 25.6079 5.92235 25.119 5.89855C25.119 6.34004 25.1267 6.71999 25.1166 7.0996C25.1088 7.39948 24.9575 7.61776 24.6794 7.73557C24.4088 7.85032 24.1363 7.81122 23.9545 7.59515C23.8277 7.44436 23.7449 7.22166 23.7254 7.0231C23.6895 6.66066 23.7152 6.2921 23.7152 5.93527H15.7496C15.7496 6.29159 15.7513 6.63125 15.7493 6.97091C15.7462 7.47292 15.4623 7.79762 15.0356 7.79048C14.6195 7.78368 14.3477 7.46544 14.3446 6.9772C14.3424 6.62972 14.3441 6.28224 14.3441 5.94139H6.37856C6.37856 6.30587 6.38077 6.64706 6.37805 6.98842C6.37414 7.47139 6.09347 7.79014 5.67629 7.79048C5.25945 7.79082 4.97742 7.47122 4.97368 6.98893C4.97096 6.64043 4.97317 6.2921 4.97317 5.91844C4.60325 5.91844 4.26393 5.91555 3.92478 5.91895C3.16352 5.92677 2.63618 6.44952 2.63176 7.20908C2.62666 8.10719 2.63006 9.00513 2.63142 9.90324C2.63142 9.97719 2.64502 10.051 2.65267 10.1292H27.4271V10.1288Z" fill="#FF0127"/>
<path d="M24.4344 19.5076C27.9211 19.5147 30.7544 22.3665 30.743 25.8573C30.7316 29.3433 27.8768 32.1738 24.3863 32.1593C20.9136 32.145 18.0885 29.3011 18.0926 25.8236C18.0967 22.336 20.9438 19.5003 24.4343 19.5076H24.4344ZM29.3374 25.829C29.3357 23.1214 27.1283 20.9145 24.421 20.9133C21.7127 20.9123 19.5022 23.1167 19.4983 25.8224C19.4944 28.5438 21.7083 30.7577 24.429 30.7534C27.1339 30.7492 29.3391 28.5368 29.3372 25.8289L29.3374 25.829Z" fill="#FF0127"/>
<path d="M7.54969 13.8844C8.14435 13.8844 8.73918 13.8815 9.33384 13.8852C9.85166 13.8884 10.1247 14.1623 10.126 14.6835C10.1289 15.8732 10.1294 17.0628 10.1257 18.2523C10.1242 18.7543 9.8469 19.0357 9.34965 19.0374C8.15047 19.0415 6.95112 19.0413 5.75194 19.0374C5.25571 19.0359 4.97572 18.753 4.97419 18.2535C4.97062 17.0542 4.97028 15.8548 4.97436 14.6555C4.97606 14.1732 5.25741 13.8901 5.73596 13.8857C6.34048 13.8801 6.945 13.8844 7.54935 13.8844H7.54969ZM6.39947 15.303V17.6097H8.70569V15.303H6.39947Z" fill="#FF0127"/>
<path d="M15.0537 19.0386C14.459 19.0386 13.8642 19.0413 13.2695 19.0377C12.7515 19.0348 12.4722 18.7596 12.4709 18.2448C12.4676 17.0552 12.4676 15.8655 12.4709 14.676C12.4722 14.1607 12.7505 13.8862 13.2707 13.885C14.4602 13.8823 15.6497 13.8818 16.8392 13.8853C17.3414 13.8869 17.6208 14.1635 17.6224 14.6628C17.6263 15.8621 17.6265 17.0615 17.6224 18.2608C17.6207 18.7587 17.3397 19.0341 16.838 19.0377C16.2433 19.042 15.6485 19.0387 15.0538 19.0387L15.0537 19.0386ZM13.895 15.304V17.6107H16.2039V15.304H13.895Z" fill="#FF0127"/>
<path d="M10.1271 23.9895C10.1271 24.5746 10.1301 25.1596 10.126 25.7447C10.1225 26.261 9.84691 26.5344 9.32586 26.5356C8.13637 26.5385 6.94688 26.5388 5.75739 26.5352C5.25844 26.5337 4.9759 26.2534 4.97437 25.7566C4.97063 24.5573 4.97046 23.3579 4.97437 22.1586C4.97607 21.662 5.25793 21.3846 5.75994 21.3831C6.94943 21.3797 8.13892 21.38 9.32841 21.3829C9.84946 21.3843 10.1228 21.6573 10.126 22.1758C10.1298 22.7803 10.1269 23.3848 10.1269 23.9895H10.1271ZM6.39166 25.11H8.69805V22.8034H6.39166V25.11Z" fill="#FF0127"/>
<path d="M25.1204 25.1307C25.5043 25.1307 25.8534 25.1282 26.2024 25.1314C26.6784 25.1358 26.9986 25.4263 26.9924 25.843C26.9865 26.25 26.6733 26.5322 26.2121 26.5354C25.637 26.5395 25.0617 26.5404 24.4866 26.5353C24.0047 26.531 23.7194 26.2512 23.7165 25.7735C23.7113 24.8766 23.7116 23.9795 23.7165 23.0824C23.7189 22.6302 24.0205 22.3152 24.4275 22.3211C24.8244 22.3269 25.1148 22.6343 25.1187 23.0722C25.1246 23.744 25.1202 24.416 25.1202 25.1307H25.1204Z" fill="#FF0127"/>
</svg>
