<svg width="36" height="31" viewBox="0 0 36 31" fill="none" xmlns="http://www.w3.org/2000/svg">
<g clip-path="url(#clip0_293_27)">
<path d="M1.49991 12.9908H28.8931C28.8271 13.4234 28.7929 13.8168 28.7042 14.1964C28.6018 14.6313 28.6575 14.8793 29.173 14.9404C32.5928 15.3477 35.2466 18.234 35.8521 21.343C36.6703 25.5456 34.0438 29.7967 29.7796 30.8015C25.9126 31.7129 21.7452 29.3837 20.5366 25.5826C20.3466 24.9838 20.0769 24.7554 19.4214 24.76C15.0047 24.7946 10.587 24.7416 6.17033 24.7946C4.38137 24.8166 3.24335 23.8706 2.95543 22.0133C2.56168 19.4742 2.14858 16.9385 1.74231 14.4017C1.67061 13.9541 1.58981 13.5077 1.49991 12.9885V12.9908ZM34.4466 22.8877C34.458 19.2054 31.5708 16.2775 27.9201 16.2671C24.4173 16.2579 21.504 19.2284 21.4835 22.8081C21.463 26.382 24.2602 29.3664 27.9019 29.4333C31.4844 29.4991 34.4364 26.5008 34.4466 22.8866V22.8877ZM18.9662 18.6436C18.9662 17.761 18.9719 16.8774 18.965 15.9949C18.9582 15.1885 18.7078 14.9508 17.8896 14.9462C17.0054 14.9416 16.7835 15.1458 16.7812 16.0052C16.7766 17.7518 16.7778 19.4984 16.7812 21.245C16.7835 22.0283 17.027 22.2648 17.8111 22.2728C18.6623 22.2809 18.9559 22.0225 18.9639 21.2346C18.9719 20.3705 18.9662 19.5076 18.9662 18.6436ZM13.6607 18.6124C13.6607 17.6907 13.671 16.7678 13.6573 15.846C13.6482 15.185 13.4445 14.9877 12.8061 14.9531C11.9071 14.9047 11.5622 15.065 11.5486 15.7214C11.5065 17.6411 11.5088 19.563 11.5418 21.4838C11.5531 22.1217 11.9298 22.3132 12.7981 22.2705C13.4218 22.2405 13.6494 22.019 13.6573 21.3799C13.6699 20.4582 13.6607 19.5353 13.6619 18.6136L13.6607 18.6124ZM8.45091 18.6297C8.45091 17.746 8.45888 16.8612 8.44863 15.9775C8.43839 15.1758 8.18234 14.9439 7.355 14.9485C6.48897 14.9531 6.2682 15.155 6.26364 15.9683C6.25795 17.1796 6.26137 18.3898 6.26364 19.6011C6.26364 20.0625 6.24771 20.5251 6.2773 20.9842C6.32396 21.6983 6.96921 22.2855 7.6452 22.2648C8.22103 22.2463 8.45091 21.8864 8.45205 20.9946C8.45205 20.2067 8.45205 19.4188 8.45205 18.6309L8.45091 18.6297ZM21.999 17.2765C22.0639 17.2846 22.1299 17.2927 22.1947 17.3007C22.8036 16.8301 23.4249 16.3744 24.011 15.8749C24.1146 15.786 24.1464 15.478 24.077 15.3373C23.8358 14.8447 23.351 14.9543 22.9253 14.9474C22.5612 14.9416 22.1913 15.0373 22.1287 15.4388C22.0354 16.0433 22.0365 16.6628 21.9979 17.2765H21.999Z" fill="#FF0127"/>
<path d="M7.69973 6.7821H21.8225C21.596 6.52945 21.4572 6.36218 21.3059 6.20875C20.3681 5.25701 19.4395 4.29605 18.4767 3.3697C18.2821 3.18281 17.9624 3.06168 17.6904 3.03745C16.8289 2.96132 16.2212 2.36836 16.2121 1.52045C16.2041 0.685229 16.8437 0.0242064 17.6779 0.00574852C18.5427 -0.013863 19.1618 0.604476 19.2472 1.49045C19.2756 1.78347 19.4019 2.1261 19.6 2.33144C20.9178 3.71001 22.2754 5.04936 23.6001 6.42217C23.9062 6.73941 24.226 6.85362 24.6528 6.8467C26.0366 6.82593 27.4204 6.83516 28.8054 6.84093C29.8717 6.84439 30.435 7.42581 30.4384 8.51714C30.4407 9.17008 30.4453 9.82418 30.435 10.4771C30.4202 11.4104 29.8785 11.9653 28.9488 12.0068C28.703 12.0184 28.456 12.0103 28.2091 12.0103C19.3928 12.0103 10.5755 12.0103 1.75929 12.0103C0.563231 12.0103 0.0078797 11.4612 0.00332764 10.266C0.0010516 9.65114 -0.00805252 9.03511 0.00560367 8.42139C0.026088 7.44658 0.622408 6.8467 1.58176 6.83978C2.71977 6.8317 3.85779 6.85939 4.99467 6.82478C5.26551 6.8167 5.59781 6.69211 5.78786 6.50407C7.21266 5.09782 8.61925 3.6731 10.0019 2.22415C10.1817 2.03611 10.2352 1.68657 10.2682 1.40163C10.3502 0.710609 10.8714 0.10496 11.5155 0.0172847C12.2962 -0.0888481 12.971 0.301075 13.1918 0.986323C13.4285 1.72348 13.1713 2.45834 12.5329 2.83096C12.4043 2.90594 12.245 3.00285 12.1152 2.98439C11.404 2.88056 11.0148 3.34662 10.5869 3.79077C9.76751 4.64444 8.92196 5.47274 8.09007 6.31488C7.97627 6.43024 7.87954 6.56406 7.69859 6.7821H7.69973Z" fill="#FF0127"/>
<path d="M26.9528 24.3333C27.5445 23.7472 28.0737 23.2339 28.5915 22.709C29.4223 21.868 30.2394 21.0143 31.0758 20.1803C31.3023 19.9553 31.5583 19.7384 31.8394 19.5954C32.2878 19.367 32.8818 19.585 33.1902 20.0303C33.477 20.4456 33.4452 21.1124 33.0616 21.5208C32.2787 22.3537 31.4741 23.1658 30.6718 23.9803C29.7762 24.8893 28.8703 25.7891 27.9736 26.6982C27.3113 27.3696 26.7229 27.395 26.056 26.7317C25.0432 25.7245 24.0395 24.7059 23.0471 23.678C22.477 23.0874 22.4588 22.3825 22.9663 21.8945C23.4773 21.4031 24.1612 21.4365 24.7336 22.018C25.4665 22.7609 26.1789 23.5246 26.9516 24.3333H26.9528Z" fill="#FF0127"/>
</g>
<defs>
<clipPath id="clip0_293_27">
<rect width="36" height="31" fill="white"/>
</clipPath>
</defs>
</svg>
