<svg width="18" height="18" viewBox="0 0 18 18" fill="none" xmlns="http://www.w3.org/2000/svg">
<path d="M0.611557 9.21542C0.611377 7.78019 0.610387 6.34496 0.611557 4.90973C0.613267 2.8553 2.1511 1.32035 4.2094 1.31864C5.64436 1.31747 7.07932 1.31675 8.51419 1.31972C8.90569 1.32053 9.22483 1.55174 9.34948 1.90706C9.47089 2.25329 9.36316 2.64218 9.07993 2.87591C8.884 3.03764 8.65342 3.08129 8.40628 3.08102C6.99877 3.07922 5.59135 3.07661 4.18384 3.08156C3.27556 3.08471 2.58481 3.63668 2.40589 4.49114C2.38492 4.59113 2.3761 4.69544 2.3761 4.79777C2.37448 7.75058 2.36899 10.7035 2.37817 13.6562C2.38078 14.5041 2.96065 15.1789 3.78775 15.3479C3.92752 15.3765 4.07422 15.3802 4.21768 15.3802C7.08751 15.382 9.95743 15.3829 12.8273 15.3808C13.7644 15.3802 14.4637 14.8324 14.6387 13.9621C14.6695 13.809 14.6702 13.6481 14.6705 13.4908C14.6728 12.138 14.67 10.7851 14.6728 9.43232C14.6739 8.91212 15.0003 8.5289 15.4633 8.48939C16.0043 8.44322 16.4309 8.83625 16.4321 9.39488C16.4352 10.8232 16.4472 12.2518 16.4229 13.6798C16.4164 14.0638 16.3391 14.4619 16.2139 14.8258C15.7421 16.1965 14.4247 17.1351 12.9742 17.1397C10.0083 17.1489 7.04224 17.1517 4.07629 17.1393C2.17423 17.1313 0.625507 15.5683 0.613627 13.6652C0.604357 12.182 0.611737 10.6986 0.611647 9.21533L0.611557 9.21542Z" fill="#FF0127"/>
<path d="M8.53704 9.80024C8.61381 9.69422 8.65404 9.6197 8.71128 9.56228C11.0538 7.21427 13.3986 4.86842 15.7407 2.51996C15.9909 2.26904 16.2724 2.138 16.6302 2.21963C17.251 2.3612 17.5201 3.09263 17.1379 3.60275C17.0928 3.66287 17.0401 3.71795 16.9869 3.77123C14.3946 6.36476 11.8012 8.95722 9.21015 11.5521C8.93376 11.8288 8.61732 11.9529 8.24049 11.8198C8.10369 11.7714 7.97094 11.6788 7.86699 11.5756C6.71193 10.4291 5.56128 9.27797 4.41297 8.12462C4.03461 7.74455 4.02507 7.20995 4.37805 6.85355C4.73589 6.4922 5.28102 6.50183 5.66406 6.88415C6.5583 7.77677 7.44957 8.67236 8.34111 9.56777C8.39421 9.62114 8.43876 9.68306 8.53704 9.80024Z" fill="#FF0127"/>
</svg>
