<svg width="46" height="46" viewBox="0 0 46 46" fill="none" xmlns="http://www.w3.org/2000/svg">
<path d="M31.0969 30.9832C30.1332 30.9832 29.1953 30.9832 28.2573 30.9832C25.3113 30.9832 22.3652 30.9871 19.4191 30.9772C19.1153 30.9763 18.9787 31.0478 18.8837 31.3675C18.4154 32.9426 16.9747 33.9946 15.352 33.9927C13.7342 33.9909 12.3025 32.9235 11.8185 31.3583C11.7847 31.2488 11.7507 31.1394 11.7024 30.983C11.0448 30.983 10.3857 30.9855 9.72624 30.9823C9.01531 30.9788 8.79221 30.7582 8.79198 30.0503C8.7906 25.9048 8.78462 21.759 8.79405 17.6135C8.79888 15.4239 10.3491 13.888 12.5467 13.8861C18.67 13.8811 24.7933 13.8834 30.9166 13.8852C32.3897 13.8857 33.4898 14.5322 34.2081 15.8195C35.2132 17.6213 36.2077 19.4289 37.2276 21.2222C37.352 21.4409 37.5774 21.6378 37.8023 21.7572C38.4643 22.1082 39.1545 22.4053 39.8245 22.7414C41.1767 23.4199 41.8694 24.5234 41.8818 26.0373C41.8931 27.395 41.8862 28.7529 41.8835 30.1106C41.8821 30.7394 41.6507 30.9756 41.0246 30.9809C40.2592 30.9873 39.4938 30.9862 38.7285 30.9804C38.5236 30.9788 38.3987 31.0071 38.3212 31.2488C37.7642 32.986 36.3982 34.0111 34.7049 33.992C33.051 33.9734 31.72 32.9154 31.1724 31.1849C31.1551 31.1302 31.1326 31.0772 31.0974 30.9825L31.0969 30.9832ZM33.1028 16.794C32.7313 15.7696 31.9792 15.2726 30.8398 15.2723C24.7586 15.2707 18.6774 15.2705 12.5964 15.2723C11.0828 15.2728 10.1793 16.1836 10.1787 17.7078C10.1766 21.5074 10.178 25.3072 10.178 29.1068C10.178 29.2596 10.178 29.4121 10.178 29.5963C10.6035 29.5963 10.9646 29.5781 11.3227 29.602C11.6162 29.6216 11.7397 29.531 11.8282 29.2313C12.2901 27.667 13.6963 26.624 15.3116 26.607C16.9544 26.5895 18.3908 27.6082 18.8694 29.1848C18.9787 29.5448 19.1452 29.6039 19.4746 29.603C23.2013 29.5928 26.9279 29.5924 30.6546 29.6036C30.9904 29.6046 31.1443 29.5346 31.2503 29.1784C31.6848 27.7199 33.0289 26.6877 34.5101 26.6141C36.302 26.5249 37.7747 27.5571 38.3205 29.2736C38.358 29.3914 38.4629 29.5749 38.5425 29.5781C39.1846 29.603 39.8282 29.5921 40.4876 29.5921C40.4876 28.2768 40.5219 27.0207 40.4749 25.7679C40.446 24.9954 40.0069 24.4215 39.3249 24.0455C37.8327 23.2225 36.2373 22.8109 34.5386 22.8106C34.1486 22.8106 33.7548 22.7759 33.3693 22.8177C32.5321 22.9086 31.8205 22.6875 31.1707 22.1447C30.964 21.972 30.6273 21.8931 30.3462 21.883C29.4517 21.8508 28.5554 21.874 27.66 21.8699C27.0236 21.8671 26.7959 21.6424 26.7936 21.0129C26.7897 19.9149 26.7911 18.8169 26.7932 17.7188C26.7943 17.0068 27.0036 16.797 27.727 16.7956C29.3593 16.7924 30.9914 16.7945 32.6237 16.7945C32.7771 16.7945 32.9305 16.7945 33.103 16.7945L33.1028 16.794ZM35.7379 21.4228C35.1813 20.42 34.655 19.4954 34.1555 18.5567C34.0085 18.2807 33.8422 18.1699 33.5209 18.1731C31.8897 18.1901 30.2581 18.1802 28.6267 18.1823C28.4885 18.1823 28.35 18.1995 28.2162 18.2083V20.4834C28.888 20.4834 29.5263 20.5258 30.1567 20.4726C30.923 20.408 31.5682 20.6063 32.1499 21.1017C32.3258 21.2516 32.5701 21.4009 32.7879 21.4085C33.7389 21.4419 34.6918 21.4228 35.7379 21.4228ZM15.3744 27.9934C14.0933 27.9861 13.0543 29.0038 13.0426 30.2778C13.0311 31.5368 14.0785 32.5978 15.3408 32.6054C16.6083 32.6132 17.6583 31.5798 17.6714 30.3111C17.6847 29.0392 16.6552 28.0008 15.3744 27.9934ZM34.7518 27.9934C33.4753 27.9964 32.4403 29.0328 32.4459 30.3024C32.4516 31.5674 33.5018 32.6097 34.7668 32.6058C36.0387 32.6019 37.0698 31.5616 37.0647 30.2872C37.0597 29.001 36.0405 27.9904 34.7518 27.9936V27.9934Z" fill="#FF0127"/>
<path d="M4.48868 14.3836C5.18052 14.3836 5.87259 14.3792 6.56443 14.385C7.07365 14.3893 7.3853 14.6591 7.38047 15.0743C7.37587 15.4662 7.06652 15.7613 6.59387 15.765C5.15246 15.776 3.71082 15.7765 2.26964 15.7638C1.79837 15.7597 1.49615 15.4577 1.4996 15.0605C1.50305 14.6561 1.80136 14.3903 2.28321 14.3854C3.01829 14.3781 3.7536 14.3836 4.48868 14.3834V14.3836Z" fill="#FF0127"/>
<path d="M5.0048 21.8212C4.49972 21.8214 3.99441 21.8285 3.48933 21.8196C2.95067 21.8099 2.62545 21.533 2.63419 21.1109C2.6427 20.7015 2.95596 20.4403 3.47277 20.4373C4.49742 20.4311 5.5223 20.4311 6.54718 20.4373C7.06238 20.4405 7.37564 20.705 7.38093 21.1155C7.38622 21.524 7.07066 21.8062 6.56374 21.8182C6.0444 21.8304 5.5246 21.821 5.00503 21.8212H5.0048Z" fill="#FF0127"/>
<path d="M5.54461 27.8649C5.15476 27.8647 4.76445 27.8785 4.37529 27.861C3.95531 27.8422 3.67701 27.5602 3.67241 27.1869C3.66804 26.8214 3.95071 26.505 4.3608 26.4939C5.13981 26.473 5.92043 26.4728 6.69944 26.4951C7.10723 26.5068 7.38967 26.8302 7.3807 27.1945C7.3715 27.5696 7.0955 27.8426 6.67046 27.8617C6.29579 27.8785 5.91974 27.8652 5.54438 27.8649H5.54461Z" fill="#FF0127"/>
<path d="M17.4869 21.4234C19.3644 21.4234 21.2419 21.4271 23.1194 21.4204C23.5327 21.419 23.8257 21.5681 23.9267 21.9832C24.018 22.3586 23.7422 22.7298 23.3367 22.7974C23.2238 22.8163 23.1063 22.8098 22.991 22.8098C19.337 22.8103 15.6832 22.8103 12.0292 22.8103C11.9715 22.8103 11.9135 22.8117 11.856 22.8098C11.3636 22.794 11.0382 22.5028 11.0524 22.0916C11.0665 21.6904 11.3735 21.4262 11.8547 21.425C13.7322 21.4213 15.6096 21.4234 17.4871 21.4234H17.4869Z" fill="#FF0127"/>
</svg>
