<svg width="222" height="40" viewBox="0 0 222 40" fill="none" xmlns="http://www.w3.org/2000/svg">
<g clip-path="url(#clip0_257_274)">
<path d="M28.9295 30.9935C28.2427 29.1087 27.5558 27.2198 26.8649 25.335C26.715 24.9249 26.7025 24.5231 26.8565 24.113C26.9564 23.8478 27.048 23.5786 27.1354 23.3093C27.2853 22.8537 27.1604 22.5016 26.7483 22.2572C25.2623 21.3873 23.7763 20.5174 22.2861 19.6516C22.2278 19.722 22.1404 19.78 22.078 19.838C21.9698 19.8007 21.9032 19.7924 21.8532 19.7593C21.5244 19.5729 21.1955 19.3823 20.875 19.1835C20.696 19.0717 20.6502 18.8977 20.7335 18.7403C20.4796 18.5911 20.2257 18.442 19.9759 18.297C19.8385 18.2142 19.672 18.1769 19.518 18.1189C19.2475 18.1438 19.0518 18.2597 18.877 18.4337C18.4233 18.8852 17.9779 19.345 17.5117 19.7841C17.1787 20.099 17.0996 20.4386 17.2536 20.8736C18.6439 24.8255 20.0259 28.7815 21.412 32.7333C21.5868 33.2304 21.8282 33.3215 22.2986 33.0771C23.231 32.5883 24.1592 32.0995 25.0916 31.6149C25.3664 31.4699 25.537 31.532 25.6619 31.8137C25.7576 32.0291 25.8492 32.2487 25.945 32.4641C26.1115 32.8286 26.3404 32.9197 26.7109 32.7499C27.3227 32.4682 27.9263 32.1824 28.5382 31.9007C29.046 31.6646 29.1126 31.5154 28.9253 30.9976L28.9295 30.9935ZM24.8211 30.2769C24.0094 30.7035 23.1977 31.1302 22.386 31.5527C22.0322 31.735 21.874 31.6729 21.745 31.2959C21.0207 29.2247 20.2881 27.1535 19.5721 25.0781C19.2142 24.0425 19.9384 23.0152 21.054 23.0069C21.0998 23.0111 21.1914 23.0069 21.2705 23.0359C22.1404 23.3508 22.9688 23.6739 23.3059 24.6888C23.8554 26.354 24.4714 27.9985 25.0583 29.6514C25.1874 30.0118 25.1499 30.1029 24.8211 30.2769Z" fill="#FF0127"/>
<path d="M22.7773 3.36777V3.4299H14.4731V3.3512H2.13953C0.957378 3.3512 0 4.30395 0 5.48039V34.8708C0 36.0472 0.957378 37 2.13953 37H39.0943V20.3061C39.0943 11.1803 31.8516 3.74473 22.7773 3.36362V3.36777ZM10.9391 26.2297C10.7185 26.2877 10.4895 26.3043 10.2606 26.3374C8.49569 26.3043 7.2844 24.6597 7.77142 22.9365C8.03782 22.0045 8.55813 21.205 9.14505 20.4469C9.41145 20.1031 9.69866 19.78 9.99004 19.4569C10.1565 19.2705 10.3522 19.2539 10.5062 19.4237C11.4677 20.4593 12.346 21.5571 12.7581 22.9365C13.191 24.3988 12.3752 25.8528 10.9349 26.2297H10.9391ZM28.7089 37L28.0054 35.4217C28.0054 35.4217 27.5475 35.575 27.4226 35.2975C27.1812 34.7507 26.9481 34.1997 26.6984 33.6529C26.6651 33.5825 26.5568 33.4997 26.4861 33.4997C25.9325 33.4872 25.5578 33.2304 25.3456 32.7292C25.2914 32.6049 25.2373 32.4848 25.1707 32.3315C24.5797 32.6422 24.0136 32.9363 23.4474 33.2304C23.1311 33.3961 22.8189 33.5659 22.5026 33.7275C21.8074 34.0754 21.0873 33.7938 20.8292 33.0606C19.4181 29.0424 18.0112 25.0201 16.6043 21.002C16.392 20.3972 16.5335 19.8711 16.9664 19.3947C16.9373 19.3575 16.9123 19.3202 16.879 19.287C16.1006 18.4793 15.3264 17.6674 14.5397 16.8637C14.4356 16.7602 14.2816 16.6773 14.1401 16.6442C12.3793 16.2589 10.6144 15.8861 8.85367 15.5092C8.44991 15.4222 8.37498 15.3186 8.45823 14.9251C8.55813 14.457 8.65387 13.9848 8.75793 13.5167C8.82869 13.1977 8.96189 13.1149 9.28657 13.1853C11.1514 13.5829 13.012 13.9848 14.8768 14.3783C15.368 14.4818 15.7718 14.7097 16.1173 15.0701C16.9622 15.9565 17.8114 16.8389 18.6564 17.7171C18.8395 17.6467 19.0144 17.5597 19.1934 17.5224C19.568 17.4395 19.9301 17.4975 20.2673 17.6964C22.5525 19.0344 24.8377 20.3682 27.1229 21.7104C27.7806 22.0997 28.0179 22.7791 27.7765 23.504C27.6849 23.7816 27.5892 24.055 27.4893 24.3284C27.3893 24.5935 27.3977 24.8462 27.4976 25.1113C28.1969 27.0209 28.8837 28.9306 29.583 30.8361C29.762 31.3249 29.7287 31.7557 29.3749 32.1575C29.3332 32.2031 29.3374 32.3191 29.3665 32.3812C29.6121 32.9611 29.866 33.5369 30.1158 34.1169C30.249 34.4234 29.8827 34.6927 29.8827 34.6927L30.9358 37.0041H28.7089V37Z" fill="#FF0127"/>
<path d="M10.2731 20.1321C9.66951 20.8197 9.12839 21.5115 8.73711 22.311C8.59975 22.5927 8.47903 22.8868 8.39995 23.1892C8.17517 24.0218 8.47903 24.8337 9.17001 25.3142C9.81936 25.7616 10.6977 25.7658 11.3595 25.3267C12.142 24.8047 12.4168 23.8768 12.0588 22.8909C11.6842 21.847 11.0098 20.9937 10.2731 20.1321Z" fill="#FF0127"/>
<path d="M22.5817 24.668C22.4693 24.3449 22.2237 24.1751 21.8907 24.0467C21.924 24.1502 21.9448 24.2248 21.9739 24.2952C22.3902 25.3764 22.8064 26.4534 23.2185 27.5346C23.2643 27.6547 23.2976 27.7997 23.2726 27.9198C23.2019 28.2264 23.0978 28.5246 22.9937 28.8229C22.923 29.0217 22.7398 29.1129 22.5608 29.0383C22.3735 28.9596 22.3111 28.8105 22.3694 28.6116C22.4235 28.4211 22.4734 28.2305 22.5484 28.0483C22.615 27.8826 22.5983 27.7376 22.5359 27.5719C22.0572 26.3374 21.5785 25.1071 21.1123 23.8686C21.0415 23.6822 20.9499 23.6532 20.7793 23.6987C20.2798 23.8396 20.03 24.3574 20.2173 24.8959C20.8917 26.8304 21.5702 28.7607 22.2487 30.6911C22.2653 30.7408 22.2944 30.7864 22.3194 30.8402C23.0146 30.4757 23.7014 30.1153 24.3757 29.7632C24.3757 29.7259 24.3799 29.7094 24.3757 29.6969C23.7805 28.0193 23.1852 26.3457 22.59 24.668H22.5817Z" fill="#FF0127"/>
<path d="M27.2437 33.2345C27.4768 33.7689 27.6974 34.2784 27.9305 34.8086C28.4341 34.5932 28.9128 34.382 29.4123 34.1707C29.1709 33.6198 28.942 33.0937 28.7047 32.551C28.2094 32.783 27.7307 33.0067 27.2437 33.2345Z" fill="white"/>
<path d="M17.3743 18.9391C17.6824 18.6367 17.9196 18.4089 18.1652 18.1727C18.1444 18.1479 18.1236 18.1147 18.0944 18.0857C17.2411 17.1993 16.3961 16.3004 15.522 15.4305C15.3305 15.2441 15.0475 15.1032 14.7852 15.0411C13.6239 14.7677 12.4542 14.5316 11.2887 14.2789C10.656 14.1422 10.0233 14.0096 9.36565 13.8688C9.29073 14.2167 9.21996 14.544 9.1492 14.8795C9.24078 14.9044 9.30738 14.9251 9.37814 14.9375C11.0098 15.2855 12.6374 15.6376 14.2691 15.9814C14.5771 16.0477 14.8227 16.1802 15.0392 16.4081C15.7843 17.1951 16.5377 17.9698 17.2828 18.7527C17.3369 18.8065 17.3535 18.8935 17.3702 18.9391H17.3743Z" fill="#FF0127"/>
<path d="M22.7773 3.36778V2.46059C22.7773 1.10188 21.67 0 20.3047 0H16.9456C15.5803 0 14.4731 1.10188 14.4731 2.46059V3.34707H22.053C22.2944 3.34707 22.54 3.35535 22.7773 3.36364V3.36778Z" fill="#F7C343"/>
<path d="M22.3361 19.5811C22.411 19.4196 22.3361 19.2746 22.182 19.1835C21.8615 18.9971 21.5452 18.8065 21.2205 18.6243C21.029 18.5165 20.8417 18.5621 20.7418 18.7195C20.7418 18.7278 20.7418 18.732 20.7335 18.7402C21.2538 19.0426 21.77 19.345 22.2903 19.6474C22.3069 19.6267 22.3236 19.606 22.3361 19.5811Z" fill="white"/>
</g>
<path d="M62.09 32.34C54.542 32.34 49.85 27.716 49.85 20.61C49.85 13.504 54.542 8.88 62.09 8.88C69.808 8.88 74.466 13.504 74.466 20.61C74.466 27.716 69.808 32.34 62.09 32.34ZM62.09 27.444C67.088 27.444 69.026 25.676 69.026 20.61C69.026 15.544 67.088 13.776 62.09 13.776C57.092 13.776 55.256 15.544 55.256 20.61C55.256 25.676 57.092 27.444 62.09 27.444ZM81.7901 32H76.6901V14.966H81.4161V20.202H81.7221C82.1641 17.346 84.2041 14.626 88.6581 14.626C93.3161 14.626 95.5261 17.618 95.5261 21.392V32H90.4261V23.092C90.4261 20.372 89.3041 19.216 86.1761 19.216C82.9461 19.216 81.7901 20.508 81.7901 23.398V32ZM107.15 32.34C101.472 32.34 97.5961 29.552 97.5961 23.5C97.5961 18.06 101.438 14.626 107.048 14.626C112.624 14.626 116.33 17.55 116.33 22.888C116.33 23.5 116.262 23.942 116.194 24.52H102.322C102.458 27.138 103.682 28.26 106.98 28.26C110.006 28.26 111.06 27.478 111.06 26.016V25.676H116.16V26.05C116.16 29.756 112.556 32.34 107.15 32.34ZM106.946 18.604C103.92 18.604 102.628 19.624 102.39 21.834H111.434C111.298 19.59 109.938 18.604 106.946 18.604ZM129.237 32.34C122.267 32.34 117.983 27.716 117.983 20.61C117.983 13.504 122.811 8.88 130.631 8.88C137.771 8.88 142.293 12.212 142.293 17.686V17.958H136.615V17.686C136.615 15.034 134.881 13.776 130.495 13.776C125.327 13.776 123.389 15.544 123.389 20.61C123.389 25.676 125.259 27.444 130.257 27.444C135.493 27.444 137.091 26.628 137.227 23.738H129.509V19.964H142.327V32H137.601V27.104H137.329C136.547 30.096 134.167 32.34 129.237 32.34ZM150.059 32.34C146.387 32.34 144.177 30.64 144.177 27.784C144.177 25.268 146.047 23.704 149.685 23.33L156.995 22.582V21.936C156.995 19.726 156.009 19.114 153.289 19.114C150.705 19.114 149.651 19.794 149.651 21.732V21.868H144.517V21.766C144.517 17.55 148.053 14.626 153.663 14.626C159.341 14.626 162.027 17.55 162.027 22.004V32H157.267V28.09H156.995C156.213 30.742 153.833 32.34 150.059 32.34ZM149.311 27.444C149.311 28.362 150.025 28.736 151.521 28.736C154.989 28.736 156.859 27.92 156.995 25.506L151.079 26.186C149.855 26.288 149.311 26.628 149.311 27.444ZM169.712 32H164.612V9.22H169.712V32ZM177.481 32H172.381V9.22H177.481V32ZM189.229 32.34C183.415 32.34 179.505 28.872 179.505 23.5C179.505 18.06 183.415 14.626 189.229 14.626C195.043 14.626 198.953 18.06 198.953 23.5C198.953 28.872 195.043 32.34 189.229 32.34ZM189.229 27.818C192.663 27.818 193.887 26.492 193.887 23.5C193.887 20.508 192.663 19.114 189.229 19.114C185.761 19.114 184.571 20.508 184.571 23.5C184.571 26.492 185.761 27.818 189.229 27.818ZM206.136 32H201.036V14.966H205.762V20.202H206.068C206.51 17.346 208.55 14.626 213.004 14.626C217.662 14.626 219.872 17.618 219.872 21.392V32H214.772V23.092C214.772 20.372 213.65 19.216 210.522 19.216C207.292 19.216 206.136 20.508 206.136 23.398V32Z" fill="#FF0127"/>
<defs>
<clipPath id="clip0_257_274">
<rect width="39.0943" height="37" fill="white"/>
</clipPath>
</defs>
</svg>
